<svg xmlns="http://www.w3.org/2000/svg" width="3840" height="2160"><path d="M1988,1126L2311,989L1813,564Z" fill="rgb(32,31,31)" stroke="rgb(32,31,31)" stroke-width="1.51"/><path d="M2311,989L2408,641L1813,564Z" fill="rgb(31,30,30)" stroke="rgb(31,30,30)" stroke-width="1.51"/><path d="M2408,641L2315,407L1813,564Z" fill="rgb(28,28,28)" stroke="rgb(28,28,28)" stroke-width="1.51"/><path d="M1813,564L1612,1024L1988,1126Z" fill="rgb(30,30,30)" stroke="rgb(30,30,30)" stroke-width="1.51"/><path d="M2315,407L1891,183L1813,564Z" fill="rgb(26,25,25)" stroke="rgb(26,25,25)" stroke-width="1.51"/><path d="M1813,564L1390,798L1612,1024Z" fill="rgb(28,27,27)" stroke="rgb(28,27,27)" stroke-width="1.51"/><path d="M1533,380L1390,798L1813,564Z" fill="rgb(25,25,25)" stroke="rgb(25,25,25)" stroke-width="1.51"/><path d="M1891,183L1533,380L1813,564Z" fill="rgb(24,23,23)" stroke="rgb(24,23,23)" stroke-width="1.51"/><path d="M2408,641L2666,580L2315,407Z" fill="rgb(31,30,30)" stroke="rgb(31,30,30)" stroke-width="1.51"/><path d="M2315,407L2203,0L1891,183Z" fill="rgb(25,24,24)" stroke="rgb(25,24,24)" stroke-width="1.51"/><path d="M2732,1052L2666,580L2408,641Z" fill="rgb(34,33,33)" stroke="rgb(34,33,33)" stroke-width="1.51"/><path d="M2311,989L2732,1052L2408,641Z" fill="rgb(35,34,34)" stroke="rgb(35,34,34)" stroke-width="1.51"/><path d="M2404,1621L2732,1052L2311,989Z" fill="rgb(39,38,38)" stroke="rgb(39,38,38)" stroke-width="1.51"/><path d="M1988,1126L2404,1621L2311,989Z" fill="rgb(38,37,37)" stroke="rgb(38,37,37)" stroke-width="1.51"/><path d="M1550,1392L1933,1543L1988,1126Z" fill="rgb(36,35,35)" stroke="rgb(36,35,35)" stroke-width="1.51"/><path d="M1550,1392L1988,1126L1612,1024Z" fill="rgb(33,32,32)" stroke="rgb(33,32,32)" stroke-width="1.51"/><path d="M1267,1131L1550,1392L1612,1024Z" fill="rgb(32,31,31)" stroke="rgb(32,31,31)" stroke-width="1.51"/><path d="M1390,798L1267,1131L1612,1024Z" fill="rgb(29,28,28)" stroke="rgb(29,28,28)" stroke-width="1.51"/><path d="M1533,380L1247,822L1390,798Z" fill="rgb(25,24,24)" stroke="rgb(25,24,24)" stroke-width="1.51"/><path d="M2762,320L2203,0L2315,407Z" fill="rgb(27,26,26)" stroke="rgb(27,26,26)" stroke-width="1.51"/><path d="M1891,183L1372,-70L1533,380Z" fill="rgb(20,20,20)" stroke="rgb(20,20,20)" stroke-width="1.51"/><path d="M1247,822L1267,1131L1390,798Z" fill="rgb(27,27,27)" stroke="rgb(27,27,27)" stroke-width="1.51"/><path d="M2666,580L2762,320L2315,407Z" fill="rgb(30,30,30)" stroke="rgb(30,30,30)" stroke-width="1.51"/><path d="M3073,715L2762,320L2666,580Z" fill="rgb(33,32,32)" stroke="rgb(33,32,32)" stroke-width="1.51"/><path d="M1933,1543L2404,1621L1988,1126Z" fill="rgb(39,38,38)" stroke="rgb(39,38,38)" stroke-width="1.51"/><path d="M2203,0L1959,-184L1891,183Z" fill="rgb(21,21,21)" stroke="rgb(21,21,21)" stroke-width="1.51"/><path d="M2023,-382L1959,-184L2203,0Z" fill="rgb(22,21,21)" stroke="rgb(22,21,21)" stroke-width="1.51"/><path d="M2732,1052L3073,715L2666,580Z" fill="rgb(36,35,35)" stroke="rgb(36,35,35)" stroke-width="1.51"/><path d="M2829,1554L2985,1166L2732,1052Z" fill="rgb(42,41,41)" stroke="rgb(42,41,41)" stroke-width="1.51"/><path d="M2985,1166L3073,715L2732,1052Z" fill="rgb(39,38,38)" stroke="rgb(39,38,38)" stroke-width="1.51"/><path d="M2404,1621L2829,1554L2732,1052Z" fill="rgb(43,42,42)" stroke="rgb(43,42,42)" stroke-width="1.51"/><path d="M1933,1543L2379,1796L2404,1621Z" fill="rgb(43,42,42)" stroke="rgb(43,42,42)" stroke-width="1.51"/><path d="M1939,1956L2379,1796L1933,1543Z" fill="rgb(43,42,42)" stroke="rgb(43,42,42)" stroke-width="1.51"/><path d="M2629,1814L2829,1554L2404,1621Z" fill="rgb(46,44,44)" stroke="rgb(46,44,44)" stroke-width="1.51"/><path d="M1533,380L1009,328L1247,822Z" fill="rgb(23,22,22)" stroke="rgb(23,22,22)" stroke-width="1.51"/><path d="M1959,-184L1372,-70L1891,183Z" fill="rgb(19,18,18)" stroke="rgb(19,18,18)" stroke-width="1.51"/><path d="M2762,320L2675,-134L2203,0Z" fill="rgb(26,25,25)" stroke="rgb(26,25,25)" stroke-width="1.51"/><path d="M3167,202L2675,-134L2762,320Z" fill="rgb(29,28,28)" stroke="rgb(29,28,28)" stroke-width="1.51"/><path d="M1210,-24L1009,328L1533,380Z" fill="rgb(19,18,18)" stroke="rgb(19,18,18)" stroke-width="1.51"/><path d="M1247,822L626,980L1267,1131Z" fill="rgb(26,26,26)" stroke="rgb(26,26,26)" stroke-width="1.51"/><path d="M1383,1922L1939,1956L1933,1543Z" fill="rgb(41,41,41)" stroke="rgb(41,41,41)" stroke-width="1.51"/><path d="M1383,1922L1933,1543L1550,1392Z" fill="rgb(39,37,37)" stroke="rgb(39,37,37)" stroke-width="1.51"/><path d="M1372,-70L1210,-24L1533,380Z" fill="rgb(17,17,17)" stroke="rgb(17,17,17)" stroke-width="1.51"/><path d="M2379,1796L2629,1814L2404,1621Z" fill="rgb(46,44,44)" stroke="rgb(46,44,44)" stroke-width="1.51"/><path d="M2706,2231L2629,1814L2379,1796Z" fill="rgb(49,48,48)" stroke="rgb(49,48,48)" stroke-width="1.51"/><path d="M1959,-184L1598,-523L1372,-70Z" fill="rgb(18,18,18)" stroke="rgb(18,18,18)" stroke-width="1.51"/><path d="M1372,-70L1212,-397L1210,-24Z" fill="rgb(15,14,14)" stroke="rgb(15,14,14)" stroke-width="1.51"/><path d="M2302,-586L2023,-382L2203,0Z" fill="rgb(22,22,22)" stroke="rgb(22,22,22)" stroke-width="1.51"/><path d="M2829,1554L2989,1511L2985,1166Z" fill="rgb(45,44,44)" stroke="rgb(45,44,44)" stroke-width="1.51"/><path d="M2985,1166L3453,714L3073,715Z" fill="rgb(40,39,39)" stroke="rgb(40,39,39)" stroke-width="1.51"/><path d="M2997,1791L2989,1511L2829,1554Z" fill="rgb(48,46,46)" stroke="rgb(48,46,46)" stroke-width="1.51"/><path d="M1009,328L869,569L1247,822Z" fill="rgb(22,21,21)" stroke="rgb(22,21,21)" stroke-width="1.51"/><path d="M719,228L869,569L1009,328Z" fill="rgb(18,17,17)" stroke="rgb(18,17,17)" stroke-width="1.51"/><path d="M1267,1131L1016,1531L1550,1392Z" fill="rgb(33,31,31)" stroke="rgb(33,31,31)" stroke-width="1.51"/><path d="M626,980L1016,1531L1267,1131Z" fill="rgb(29,28,28)" stroke="rgb(29,28,28)" stroke-width="1.51"/><path d="M3073,715L3167,202L2762,320Z" fill="rgb(33,32,32)" stroke="rgb(33,32,32)" stroke-width="1.51"/><path d="M3453,714L3167,202L3073,715Z" fill="rgb(37,35,35)" stroke="rgb(37,35,35)" stroke-width="1.51"/><path d="M1016,1531L1383,1922L1550,1392Z" fill="rgb(36,35,35)" stroke="rgb(36,35,35)" stroke-width="1.51"/><path d="M2460,2355L2706,2231L2379,1796Z" fill="rgb(51,50,50)" stroke="rgb(51,50,50)" stroke-width="1.51"/><path d="M1383,1922L1806,2151L1939,1956Z" fill="rgb(44,43,43)" stroke="rgb(44,43,43)" stroke-width="1.51"/><path d="M3548,1208L3453,714L2985,1166Z" fill="rgb(43,42,42)" stroke="rgb(43,42,42)" stroke-width="1.51"/><path d="M2629,1814L2997,1791L2829,1554Z" fill="rgb(48,47,47)" stroke="rgb(48,47,47)" stroke-width="1.51"/><path d="M2706,2231L2997,1791L2629,1814Z" fill="rgb(51,49,49)" stroke="rgb(51,49,49)" stroke-width="1.51"/><path d="M2023,-382L1598,-523L1959,-184Z" fill="rgb(20,20,20)" stroke="rgb(20,20,20)" stroke-width="1.51"/><path d="M2675,-134L2302,-586L2203,0Z" fill="rgb(24,23,23)" stroke="rgb(24,23,23)" stroke-width="1.51"/><path d="M2023,-382L2302,-586L1598,-523Z" fill="rgb(21,21,21)" stroke="rgb(21,21,21)" stroke-width="1.51"/><path d="M2794,-609L2302,-586L2675,-134Z" fill="rgb(25,25,25)" stroke="rgb(25,25,25)" stroke-width="1.51"/><path d="M3548,1208L2985,1166L2989,1511Z" fill="rgb(45,44,44)" stroke="rgb(45,44,44)" stroke-width="1.51"/><path d="M869,569L626,980L1247,822Z" fill="rgb(24,23,23)" stroke="rgb(24,23,23)" stroke-width="1.51"/><path d="M381,1001L626,980L292,692Z" fill="rgb(21,20,20)" stroke="rgb(21,20,20)" stroke-width="1.51"/><path d="M1210,-24L719,228L1009,328Z" fill="rgb(15,15,15)" stroke="rgb(15,15,15)" stroke-width="1.51"/><path d="M627,-196L719,228L1210,-24Z" fill="rgb(11,10,10)" stroke="rgb(11,10,10)" stroke-width="1.51"/><path d="M626,980L831,1597L1016,1531Z" fill="rgb(30,29,29)" stroke="rgb(30,29,29)" stroke-width="1.51"/><path d="M1016,1531L1099,1960L1383,1922Z" fill="rgb(37,37,37)" stroke="rgb(37,37,37)" stroke-width="1.51"/><path d="M1598,-523L1212,-397L1372,-70Z" fill="rgb(16,16,16)" stroke="rgb(16,16,16)" stroke-width="1.51"/><path d="M3167,202L3170,-135L2675,-134Z" fill="rgb(28,27,27)" stroke="rgb(28,27,27)" stroke-width="1.51"/><path d="M3433,162L3170,-135L3167,202Z" fill="rgb(30,30,30)" stroke="rgb(30,30,30)" stroke-width="1.51"/><path d="M831,1597L1099,1960L1016,1531Z" fill="rgb(35,34,34)" stroke="rgb(35,34,34)" stroke-width="1.51"/><path d="M1383,1922L1536,2306L1806,2151Z" fill="rgb(45,43,43)" stroke="rgb(45,43,43)" stroke-width="1.51"/><path d="M3453,714L3433,162L3167,202Z" fill="rgb(35,34,34)" stroke="rgb(35,34,34)" stroke-width="1.51"/><path d="M3536,1494L3548,1208L2989,1511Z" fill="rgb(48,47,47)" stroke="rgb(48,47,47)" stroke-width="1.51"/><path d="M3964,153L3545,19L3433,162Z" fill="rgb(34,33,33)" stroke="rgb(34,33,33)" stroke-width="1.51"/><path d="M2460,2355L2379,1796L1939,1956Z" fill="rgb(49,47,47)" stroke="rgb(49,47,47)" stroke-width="1.51"/><path d="M3462,1754L3536,1494L2989,1511Z" fill="rgb(50,49,49)" stroke="rgb(50,49,49)" stroke-width="1.51"/><path d="M2216,2567L2460,2355L1939,1956Z" fill="rgb(50,48,48)" stroke="rgb(50,48,48)" stroke-width="1.51"/><path d="M1229,2196L1536,2306L1383,1922Z" fill="rgb(43,42,42)" stroke="rgb(43,42,42)" stroke-width="1.51"/><path d="M3090,-423L2675,-134L3170,-135Z" fill="rgb(28,27,27)" stroke="rgb(28,27,27)" stroke-width="1.51"/><path d="M3090,-423L2794,-609L2675,-134Z" fill="rgb(27,26,26)" stroke="rgb(27,26,26)" stroke-width="1.51"/><path d="M2216,2567L1939,1956L1806,2151Z" fill="rgb(48,47,47)" stroke="rgb(48,47,47)" stroke-width="1.51"/><path d="M3540,-477L3090,-423L3170,-135Z" fill="rgb(30,29,29)" stroke="rgb(30,29,29)" stroke-width="1.51"/><path d="M1099,1960L1229,2196L1383,1922Z" fill="rgb(40,40,40)" stroke="rgb(40,40,40)" stroke-width="1.51"/><path d="M661,2348L1229,2196L1099,1960Z" fill="rgb(41,40,40)" stroke="rgb(41,40,40)" stroke-width="1.51"/><path d="M3462,1754L2989,1511L2997,1791Z" fill="rgb(50,49,49)" stroke="rgb(50,49,49)" stroke-width="1.51"/><path d="M626,980L458,1571L831,1597Z" fill="rgb(28,28,28)" stroke="rgb(28,28,28)" stroke-width="1.51"/><path d="M831,1597L623,1810L1099,1960Z" fill="rgb(35,34,34)" stroke="rgb(35,34,34)" stroke-width="1.51"/><path d="M292,692L626,980L869,569Z" fill="rgb(21,20,20)" stroke="rgb(21,20,20)" stroke-width="1.51"/><path d="M3433,162L3545,19L3170,-135Z" fill="rgb(31,30,30)" stroke="rgb(31,30,30)" stroke-width="1.51"/><path d="M3964,153L3433,162L3453,714Z" fill="rgb(37,36,36)" stroke="rgb(37,36,36)" stroke-width="1.51"/><path d="M3079,2413L3462,1754L2997,1791Z" fill="rgb(54,52,52)" stroke="rgb(54,52,52)" stroke-width="1.51"/><path d="M719,228L410,251L869,569Z" fill="rgb(16,15,15)" stroke="rgb(16,15,15)" stroke-width="1.51"/><path d="M627,-196L410,251L719,228Z" fill="rgb(9,9,9)" stroke="rgb(9,9,9)" stroke-width="1.51"/><path d="M1212,-397L627,-196L1210,-24Z" fill="rgb(12,12,12)" stroke="rgb(12,12,12)" stroke-width="1.51"/><path d="M458,1571L623,1810L831,1597Z" fill="rgb(32,31,31)" stroke="rgb(32,31,31)" stroke-width="1.51"/><path d="M410,251L292,692L869,569Z" fill="rgb(17,16,16)" stroke="rgb(17,16,16)" stroke-width="1.51"/><path d="M381,1001L458,1571L626,980Z" fill="rgb(25,25,25)" stroke="rgb(25,25,25)" stroke-width="1.51"/><path d="M407,1732L458,1571L-45,1600Z" fill="rgb(29,28,28)" stroke="rgb(29,28,28)" stroke-width="1.51"/><path d="M1793,2647L2216,2567L1806,2151Z" fill="rgb(48,46,46)" stroke="rgb(48,46,46)" stroke-width="1.51"/><path d="M2758,2657L3079,2413L2706,2231Z" fill="rgb(54,53,53)" stroke="rgb(54,53,53)" stroke-width="1.51"/><path d="M2706,2231L3079,2413L2997,1791Z" fill="rgb(55,53,53)" stroke="rgb(55,53,53)" stroke-width="1.51"/><path d="M1793,2647L1806,2151L1536,2306Z" fill="rgb(46,45,45)" stroke="rgb(46,45,45)" stroke-width="1.51"/><path d="M3820,1429L3548,1208L3536,1494Z" fill="rgb(50,48,48)" stroke="rgb(50,48,48)" stroke-width="1.51"/><path d="M3820,1429L3800,1220L3548,1208Z" fill="rgb(49,48,48)" stroke="rgb(49,48,48)" stroke-width="1.51"/><path d="M3548,1208L3800,1220L3453,714Z" fill="rgb(45,44,44)" stroke="rgb(45,44,44)" stroke-width="1.51"/><path d="M1584,2763L1536,2306L1242,2739Z" fill="rgb(44,43,43)" stroke="rgb(44,43,43)" stroke-width="1.51"/><path d="M1584,2763L1793,2647L1536,2306Z" fill="rgb(46,44,44)" stroke="rgb(46,44,44)" stroke-width="1.51"/><path d="M458,1571L407,1732L623,1810Z" fill="rgb(32,31,31)" stroke="rgb(32,31,31)" stroke-width="1.51"/><path d="M1242,2739L1536,2306L1229,2196Z" fill="rgb(43,42,42)" stroke="rgb(43,42,42)" stroke-width="1.51"/><path d="M-45,1600L458,1571L381,1001Z" fill="rgb(26,25,25)" stroke="rgb(26,25,25)" stroke-width="1.51"/><path d="M3860,1808L3820,1429L3536,1494Z" fill="rgb(53,52,52)" stroke="rgb(53,52,52)" stroke-width="1.51"/><path d="M1212,-397L823,-661L627,-196Z" fill="rgb(11,11,11)" stroke="rgb(11,11,11)" stroke-width="1.51"/><path d="M627,-196L193,-207L410,251Z" fill="rgb(5,5,5)" stroke="rgb(5,5,5)" stroke-width="1.51"/><path d="M1598,-523L823,-661L1212,-397Z" fill="rgb(14,14,14)" stroke="rgb(14,14,14)" stroke-width="1.51"/><path d="M2302,-586L823,-661L1598,-523Z" fill="rgb(18,17,17)" stroke="rgb(18,17,17)" stroke-width="1.51"/><path d="M2794,-609L823,-661L2302,-586Z" fill="rgb(21,21,21)" stroke="rgb(21,21,21)" stroke-width="1.51"/><path d="M2758,2657L2460,2355L2216,2567Z" fill="rgb(52,50,50)" stroke="rgb(52,50,50)" stroke-width="1.51"/><path d="M2758,2657L2706,2231L2460,2355Z" fill="rgb(53,51,51)" stroke="rgb(53,51,51)" stroke-width="1.51"/><path d="M3462,1754L3860,1808L3536,1494Z" fill="rgb(54,52,52)" stroke="rgb(54,52,52)" stroke-width="1.51"/><path d="M3545,19L3540,-477L3170,-135Z" fill="rgb(31,30,30)" stroke="rgb(31,30,30)" stroke-width="1.51"/><path d="M3090,-423L3540,-477L2794,-609Z" fill="rgb(29,28,28)" stroke="rgb(29,28,28)" stroke-width="1.51"/><path d="M3896,-44L3540,-477L3545,19Z" fill="rgb(32,31,31)" stroke="rgb(32,31,31)" stroke-width="1.51"/><path d="M1584,2763L2758,2657L2216,2567Z" fill="rgb(50,48,48)" stroke="rgb(50,48,48)" stroke-width="1.51"/><path d="M1793,2647L1584,2763L2216,2567Z" fill="rgb(47,46,46)" stroke="rgb(47,46,46)" stroke-width="1.51"/><path d="M661,2348L1099,1960L623,1810Z" fill="rgb(38,37,37)" stroke="rgb(38,37,37)" stroke-width="1.51"/><path d="M3800,1220L4067,774L3453,714Z" fill="rgb(45,44,44)" stroke="rgb(45,44,44)" stroke-width="1.51"/><path d="M4182,821L4067,774L3800,1220Z" fill="rgb(46,44,44)" stroke="rgb(46,44,44)" stroke-width="1.51"/><path d="M4067,774L3964,153L3453,714Z" fill="rgb(41,39,39)" stroke="rgb(41,39,39)" stroke-width="1.51"/><path d="M3964,153L3896,-44L3545,19Z" fill="rgb(34,33,33)" stroke="rgb(34,33,33)" stroke-width="1.51"/><path d="M390,2370L661,2348L623,1810Z" fill="rgb(38,37,37)" stroke="rgb(38,37,37)" stroke-width="1.51"/><path d="M4338,1202L4182,821L3800,1220Z" fill="rgb(48,46,46)" stroke="rgb(48,46,46)" stroke-width="1.51"/><path d="M3647,2219L3860,1808L3462,1754Z" fill="rgb(57,55,55)" stroke="rgb(57,55,55)" stroke-width="1.51"/><path d="M661,2348L1242,2739L1229,2196Z" fill="rgb(41,40,40)" stroke="rgb(41,40,40)" stroke-width="1.51"/><path d="M378,-645L193,-207L627,-196Z" fill="rgb(5,5,5)" stroke="rgb(5,5,5)" stroke-width="1.51"/><path d="M410,251L29,152L292,692Z" fill="rgb(11,11,11)" stroke="rgb(11,11,11)" stroke-width="1.51"/><path d="M3079,2413L3647,2219L3462,1754Z" fill="rgb(58,56,56)" stroke="rgb(58,56,56)" stroke-width="1.51"/><path d="M2758,2657L3172,2580L3079,2413Z" fill="rgb(55,54,54)" stroke="rgb(55,54,54)" stroke-width="1.51"/><path d="M193,-207L29,152L410,251Z" fill="rgb(4,4,4)" stroke="rgb(4,4,4)" stroke-width="1.51"/><path d="M-202,1164L-45,1600L381,1001Z" fill="rgb(23,22,22)" stroke="rgb(23,22,22)" stroke-width="1.51"/><path d="M4067,774L4280,310L3964,153Z" fill="rgb(39,38,38)" stroke="rgb(39,38,38)" stroke-width="1.51"/><path d="M4338,1202L3800,1220L3820,1429Z" fill="rgb(50,49,49)" stroke="rgb(50,49,49)" stroke-width="1.51"/><path d="M3172,2580L3647,2219L3079,2413Z" fill="rgb(58,56,56)" stroke="rgb(58,56,56)" stroke-width="1.51"/><path d="M823,-661L378,-645L627,-196Z" fill="rgb(8,7,7)" stroke="rgb(8,7,7)" stroke-width="1.51"/><path d="M193,-207L-211,-8L29,152Z" fill="rgb(0,0,0)" stroke="rgb(0,0,0)" stroke-width="1.51"/><path d="M407,1732L390,2370L623,1810Z" fill="rgb(35,34,34)" stroke="rgb(35,34,34)" stroke-width="1.51"/><path d="M-202,1164L381,1001L292,692Z" fill="rgb(20,20,20)" stroke="rgb(20,20,20)" stroke-width="1.51"/><path d="M29,152L-212,696L292,692Z" fill="rgb(12,11,11)" stroke="rgb(12,11,11)" stroke-width="1.51"/><path d="M-466,389L-212,696L29,152Z" fill="rgb(9,9,9)" stroke="rgb(9,9,9)" stroke-width="1.51"/><path d="M-212,696L-202,1164L292,692Z" fill="rgb(17,17,17)" stroke="rgb(17,17,17)" stroke-width="1.51"/><path d="M661,2348L739,2782L1242,2739Z" fill="rgb(40,39,39)" stroke="rgb(40,39,39)" stroke-width="1.51"/><path d="M-98,1825L390,2370L407,1732Z" fill="rgb(33,32,32)" stroke="rgb(33,32,32)" stroke-width="1.51"/><path d="M4182,821L4280,310L4067,774Z" fill="rgb(42,40,40)" stroke="rgb(42,40,40)" stroke-width="1.51"/><path d="M3964,153L4219,-177L3896,-44Z" fill="rgb(34,33,33)" stroke="rgb(34,33,33)" stroke-width="1.51"/><path d="M3896,-44L3896,-627L3540,-477Z" fill="rgb(33,32,32)" stroke="rgb(33,32,32)" stroke-width="1.51"/><path d="M4182,821L4338,1202L4280,310Z" fill="rgb(43,42,42)" stroke="rgb(43,42,42)" stroke-width="1.51"/><path d="M4312,1477L4338,1202L3820,1429Z" fill="rgb(51,50,50)" stroke="rgb(51,50,50)" stroke-width="1.51"/><path d="M4312,1477L3820,1429L3860,1808Z" fill="rgb(54,52,52)" stroke="rgb(54,52,52)" stroke-width="1.51"/><path d="M4219,-177L3896,-627L3896,-44Z" fill="rgb(34,33,33)" stroke="rgb(34,33,33)" stroke-width="1.51"/><path d="M3540,-477L3896,-627L2794,-609Z" fill="rgb(31,30,30)" stroke="rgb(31,30,30)" stroke-width="1.51"/><path d="M2794,-609L3896,-627L823,-661Z" fill="rgb(25,24,24)" stroke="rgb(25,24,24)" stroke-width="1.51"/><path d="M4227,1903L4312,1477L3860,1808Z" fill="rgb(56,54,54)" stroke="rgb(56,54,54)" stroke-width="1.51"/><path d="M372,2624L739,2782L661,2348Z" fill="rgb(38,37,37)" stroke="rgb(38,37,37)" stroke-width="1.51"/><path d="M1242,2739L739,2782L1584,2763Z" fill="rgb(42,41,41)" stroke="rgb(42,41,41)" stroke-width="1.51"/><path d="M-45,1600L-98,1825L407,1732Z" fill="rgb(29,28,28)" stroke="rgb(29,28,28)" stroke-width="1.51"/><path d="M390,2370L372,2624L661,2348Z" fill="rgb(37,36,36)" stroke="rgb(37,36,36)" stroke-width="1.51"/><path d="M-401,1480L-98,1825L-45,1600Z" fill="rgb(27,26,26)" stroke="rgb(27,26,26)" stroke-width="1.51"/><path d="M3172,2580L3481,2689L3647,2219Z" fill="rgb(59,57,57)" stroke="rgb(59,57,57)" stroke-width="1.51"/><path d="M3647,2219L3853,2362L3860,1808Z" fill="rgb(61,59,59)" stroke="rgb(61,59,59)" stroke-width="1.51"/><path d="M2758,2657L3481,2689L3172,2580Z" fill="rgb(56,55,55)" stroke="rgb(56,55,55)" stroke-width="1.51"/><path d="M4232,2813L3481,2689L2758,2657Z" fill="rgb(59,57,57)" stroke="rgb(59,57,57)" stroke-width="1.51"/><path d="M4280,310L4219,-177L3964,153Z" fill="rgb(35,34,34)" stroke="rgb(35,34,34)" stroke-width="1.51"/><path d="M3481,2689L3853,2362L3647,2219Z" fill="rgb(60,58,58)" stroke="rgb(60,58,58)" stroke-width="1.51"/><path d="M-61,-575L-211,-8L193,-207Z" fill="rgb(0,0,0)" stroke="rgb(0,0,0)" stroke-width="1.51"/><path d="M3853,2362L4227,1903L3860,1808Z" fill="rgb(60,58,58)" stroke="rgb(60,58,58)" stroke-width="1.51"/><path d="M-145,2387L372,2624L390,2370Z" fill="rgb(35,34,34)" stroke="rgb(35,34,34)" stroke-width="1.51"/><path d="M378,-645L-61,-575L193,-207Z" fill="rgb(2,2,2)" stroke="rgb(2,2,2)" stroke-width="1.51"/><path d="M-98,1825L-145,2387L390,2370Z" fill="rgb(34,33,33)" stroke="rgb(34,33,33)" stroke-width="1.51"/><path d="M-202,1164L-401,1480L-45,1600Z" fill="rgb(25,24,24)" stroke="rgb(25,24,24)" stroke-width="1.51"/><path d="M-584,998L-401,1480L-202,1164Z" fill="rgb(22,22,22)" stroke="rgb(22,22,22)" stroke-width="1.51"/><path d="M-584,998L-202,1164L-212,696Z" fill="rgb(19,18,18)" stroke="rgb(19,18,18)" stroke-width="1.51"/><path d="M-211,-8L-466,389L29,152Z" fill="rgb(4,4,4)" stroke="rgb(4,4,4)" stroke-width="1.51"/><path d="M-478,-85L-466,389L-211,-8Z" fill="rgb(2,2,2)" stroke="rgb(2,2,2)" stroke-width="1.51"/><path d="M3853,2362L4384,2199L4227,1903Z" fill="rgb(62,60,60)" stroke="rgb(62,60,60)" stroke-width="1.51"/><path d="M3481,2689L3787,2698L3853,2362Z" fill="rgb(61,59,59)" stroke="rgb(61,59,59)" stroke-width="1.51"/><path d="M4232,2813L3787,2698L3481,2689Z" fill="rgb(62,60,60)" stroke="rgb(62,60,60)" stroke-width="1.51"/><path d="M-466,389L-552,725L-212,696Z" fill="rgb(13,13,13)" stroke="rgb(13,13,13)" stroke-width="1.51"/><path d="M-552,725L-584,998L-212,696Z" fill="rgb(17,16,16)" stroke="rgb(17,16,16)" stroke-width="1.51"/><path d="M4219,-177L4391,-443L3896,-627Z" fill="rgb(34,33,33)" stroke="rgb(34,33,33)" stroke-width="1.51"/><path d="M4280,310L4391,-443L4219,-177Z" fill="rgb(34,33,33)" stroke="rgb(34,33,33)" stroke-width="1.51"/><path d="M4338,1202L4391,-443L4280,310Z" fill="rgb(38,37,37)" stroke="rgb(38,37,37)" stroke-width="1.51"/><path d="M-552,725L-478,-85L-584,998Z" fill="rgb(12,11,11)" stroke="rgb(12,11,11)" stroke-width="1.51"/><path d="M-466,389L-478,-85L-552,725Z" fill="rgb(8,7,7)" stroke="rgb(8,7,7)" stroke-width="1.51"/><path d="M-355,-423L-478,-85L-211,-8Z" fill="rgb(0,0,0)" stroke="rgb(0,0,0)" stroke-width="1.51"/><path d="M-61,-575L-355,-423L-211,-8Z" fill="rgb(0,0,0)" stroke="rgb(0,0,0)" stroke-width="1.51"/><path d="M-342,2134L-98,1825L-549,1734Z" fill="rgb(31,30,30)" stroke="rgb(31,30,30)" stroke-width="1.51"/><path d="M-342,2134L-145,2387L-98,1825Z" fill="rgb(33,32,32)" stroke="rgb(33,32,32)" stroke-width="1.51"/><path d="M4232,2813L4384,2199L3853,2362Z" fill="rgb(62,60,60)" stroke="rgb(62,60,60)" stroke-width="1.51"/><path d="M4227,1903L4384,2199L4312,1477Z" fill="rgb(58,56,56)" stroke="rgb(58,56,56)" stroke-width="1.51"/><path d="M4312,1477L4384,2199L4338,1202Z" fill="rgb(55,53,53)" stroke="rgb(55,53,53)" stroke-width="1.51"/><path d="M4338,1202L4384,2199L4391,-443Z" fill="rgb(46,45,45)" stroke="rgb(46,45,45)" stroke-width="1.51"/><path d="M-549,1734L-98,1825L-401,1480Z" fill="rgb(28,27,27)" stroke="rgb(28,27,27)" stroke-width="1.51"/><path d="M-584,998L-549,1734L-401,1480Z" fill="rgb(25,24,24)" stroke="rgb(25,24,24)" stroke-width="1.51"/><path d="M-145,2387L-77,2806L372,2624Z" fill="rgb(34,33,33)" stroke="rgb(34,33,33)" stroke-width="1.51"/><path d="M372,2624L-77,2806L739,2782Z" fill="rgb(36,35,35)" stroke="rgb(36,35,35)" stroke-width="1.51"/><path d="M739,2782L4232,2813L1584,2763Z" fill="rgb(49,48,48)" stroke="rgb(49,48,48)" stroke-width="1.51"/><path d="M-493,2761L-77,2806L-145,2387Z" fill="rgb(34,33,33)" stroke="rgb(34,33,33)" stroke-width="1.51"/><path d="M-493,2761L-145,2387L-342,2134Z" fill="rgb(34,33,33)" stroke="rgb(34,33,33)" stroke-width="1.51"/><path d="M3787,2698L4232,2813L3853,2362Z" fill="rgb(62,60,60)" stroke="rgb(62,60,60)" stroke-width="1.51"/><path d="M1584,2763L4232,2813L2758,2657Z" fill="rgb(54,53,53)" stroke="rgb(54,53,53)" stroke-width="1.51"/><path d="M-77,2806L4232,2813L739,2782Z" fill="rgb(46,44,44)" stroke="rgb(46,44,44)" stroke-width="1.51"/><path d="M-549,1734L-493,2761L-342,2134Z" fill="rgb(34,33,33)" stroke="rgb(34,33,33)" stroke-width="1.51"/></svg>