<svg xmlns="http://www.w3.org/2000/svg" width="3840" height="2160"><path d="M1864,1016L1853,795L1552,951Z" fill="rgb(26,14,88)" stroke="rgb(26,14,88)" stroke-width="1.51"/><path d="M1853,795L1504,593L1552,951Z" fill="rgb(26,14,96)" stroke="rgb(26,14,96)" stroke-width="1.51"/><path d="M1552,951L1521,1391L1864,1016Z" fill="rgb(26,14,83)" stroke="rgb(26,14,83)" stroke-width="1.51"/><path d="M1240,1153L1521,1391L1552,951Z" fill="rgb(26,14,86)" stroke="rgb(26,14,86)" stroke-width="1.51"/><path d="M1853,795L1864,402L1504,593Z" fill="rgb(26,14,101)" stroke="rgb(26,14,101)" stroke-width="1.51"/><path d="M2388,701L1864,402L1853,795Z" fill="rgb(26,14,94)" stroke="rgb(26,14,94)" stroke-width="1.51"/><path d="M1144,720L1240,1153L1552,951Z" fill="rgb(26,14,97)" stroke="rgb(26,14,97)" stroke-width="1.51"/><path d="M1521,1391L1865,1458L1864,1016Z" fill="rgb(25,14,75)" stroke="rgb(25,14,75)" stroke-width="1.51"/><path d="M1864,1016L2388,701L1853,795Z" fill="rgb(26,14,86)" stroke="rgb(26,14,86)" stroke-width="1.51"/><path d="M1504,593L1144,720L1552,951Z" fill="rgb(26,14,102)" stroke="rgb(26,14,102)" stroke-width="1.51"/><path d="M1138,411L1144,720L1504,593Z" fill="rgb(25,14,112)" stroke="rgb(25,14,112)" stroke-width="1.51"/><path d="M1864,402L1452,276L1504,593Z" fill="rgb(25,14,110)" stroke="rgb(25,14,110)" stroke-width="1.51"/><path d="M2438,1105L2388,701L1864,1016Z" fill="rgb(26,14,78)" stroke="rgb(26,14,78)" stroke-width="1.51"/><path d="M1865,1458L2313,1333L1864,1016Z" fill="rgb(25,14,70)" stroke="rgb(25,14,70)" stroke-width="1.51"/><path d="M2313,1333L2438,1105L1864,1016Z" fill="rgb(25,14,71)" stroke="rgb(25,14,71)" stroke-width="1.51"/><path d="M1452,276L1138,411L1504,593Z" fill="rgb(24,14,115)" stroke="rgb(24,14,115)" stroke-width="1.51"/><path d="M1521,1391L1892,1788L1865,1458Z" fill="rgb(24,14,66)" stroke="rgb(24,14,66)" stroke-width="1.51"/><path d="M1240,1153L1012,1345L1521,1391Z" fill="rgb(26,14,85)" stroke="rgb(26,14,85)" stroke-width="1.51"/><path d="M579,1066L1012,1345L1240,1153Z" fill="rgb(26,14,96)" stroke="rgb(26,14,96)" stroke-width="1.51"/><path d="M866,1562L1012,1345L579,1066Z" fill="rgb(26,14,93)" stroke="rgb(26,14,93)" stroke-width="1.51"/><path d="M1864,402L2044,22L1452,276Z" fill="rgb(24,14,114)" stroke="rgb(24,14,114)" stroke-width="1.51"/><path d="M2388,701L2211,196L1864,402Z" fill="rgb(26,15,98)" stroke="rgb(26,15,98)" stroke-width="1.51"/><path d="M1865,1458L2378,1764L2313,1333Z" fill="rgb(23,13,59)" stroke="rgb(23,13,59)" stroke-width="1.51"/><path d="M1512,2022L1892,1788L1521,1391Z" fill="rgb(24,13,62)" stroke="rgb(24,13,62)" stroke-width="1.51"/><path d="M2594,1399L2656,1013L2438,1105Z" fill="rgb(24,13,63)" stroke="rgb(24,13,63)" stroke-width="1.51"/><path d="M2438,1105L2656,1013L2388,701Z" fill="rgb(25,14,73)" stroke="rgb(25,14,73)" stroke-width="1.51"/><path d="M2388,701L2808,208L2211,196Z" fill="rgb(26,14,94)" stroke="rgb(26,14,94)" stroke-width="1.51"/><path d="M2594,1399L2438,1105L2313,1333Z" fill="rgb(23,14,61)" stroke="rgb(23,14,61)" stroke-width="1.51"/><path d="M2211,196L2044,22L1864,402Z" fill="rgb(25,14,109)" stroke="rgb(25,14,109)" stroke-width="1.51"/><path d="M2044,22L1417,-29L1452,276Z" fill="rgb(23,14,123)" stroke="rgb(23,14,123)" stroke-width="1.51"/><path d="M1452,276L1151,-99L1138,411Z" fill="rgb(21,14,127)" stroke="rgb(21,14,127)" stroke-width="1.51"/><path d="M2378,1764L2594,1399L2313,1333Z" fill="rgb(23,13,54)" stroke="rgb(23,13,54)" stroke-width="1.51"/><path d="M1892,1788L2378,1764L1865,1458Z" fill="rgb(23,13,56)" stroke="rgb(23,13,56)" stroke-width="1.51"/><path d="M1012,1345L1056,1768L1521,1391Z" fill="rgb(25,14,79)" stroke="rgb(25,14,79)" stroke-width="1.51"/><path d="M579,1066L1240,1153L1144,720Z" fill="rgb(25,14,103)" stroke="rgb(25,14,103)" stroke-width="1.51"/><path d="M1138,411L813,329L1144,720Z" fill="rgb(23,14,120)" stroke="rgb(23,14,120)" stroke-width="1.51"/><path d="M1151,-99L813,329L1138,411Z" fill="rgb(20,14,131)" stroke="rgb(20,14,131)" stroke-width="1.51"/><path d="M2656,1013L2801,801L2388,701Z" fill="rgb(26,14,74)" stroke="rgb(26,14,74)" stroke-width="1.51"/><path d="M2211,196L2333,-86L2044,22Z" fill="rgb(25,14,112)" stroke="rgb(25,14,112)" stroke-width="1.51"/><path d="M3049,797L2801,801L3148,1073Z" fill="rgb(24,13,65)" stroke="rgb(24,13,65)" stroke-width="1.51"/><path d="M866,1562L1056,1768L1012,1345Z" fill="rgb(26,14,81)" stroke="rgb(26,14,81)" stroke-width="1.51"/><path d="M1056,1768L1512,2022L1521,1391Z" fill="rgb(25,14,67)" stroke="rgb(25,14,67)" stroke-width="1.51"/><path d="M1892,1788L2245,2362L2378,1764Z" fill="rgb(22,10,44)" stroke="rgb(22,10,44)" stroke-width="1.51"/><path d="M602,581L579,1066L1144,720Z" fill="rgb(24,14,114)" stroke="rgb(24,14,114)" stroke-width="1.51"/><path d="M1146,-467L1151,-99L1417,-29Z" fill="rgb(19,13,135)" stroke="rgb(19,13,135)" stroke-width="1.51"/><path d="M1417,-29L1151,-99L1452,276Z" fill="rgb(20,13,130)" stroke="rgb(20,13,130)" stroke-width="1.51"/><path d="M416,743L602,581L326,173Z" fill="rgb(20,14,133)" stroke="rgb(20,14,133)" stroke-width="1.51"/><path d="M813,329L602,581L1144,720Z" fill="rgb(23,14,122)" stroke="rgb(23,14,122)" stroke-width="1.51"/><path d="M1537,-652L1146,-467L1417,-29Z" fill="rgb(20,13,132)" stroke="rgb(20,13,132)" stroke-width="1.51"/><path d="M2808,208L2333,-86L2211,196Z" fill="rgb(25,14,104)" stroke="rgb(25,14,104)" stroke-width="1.51"/><path d="M2801,801L2808,208L2388,701Z" fill="rgb(26,14,83)" stroke="rgb(26,14,83)" stroke-width="1.51"/><path d="M602,581L416,743L579,1066Z" fill="rgb(24,14,119)" stroke="rgb(24,14,119)" stroke-width="1.51"/><path d="M326,173L602,581L813,329Z" fill="rgb(20,13,135)" stroke="rgb(20,13,135)" stroke-width="1.51"/><path d="M2801,801L3053,304L2808,208Z" fill="rgb(25,14,83)" stroke="rgb(25,14,83)" stroke-width="1.51"/><path d="M3148,1073L2801,801L2656,1013Z" fill="rgb(24,14,64)" stroke="rgb(24,14,64)" stroke-width="1.51"/><path d="M3148,1073L2656,1013L2594,1399Z" fill="rgb(24,13,59)" stroke="rgb(24,13,59)" stroke-width="1.51"/><path d="M1512,2022L1887,2412L1892,1788Z" fill="rgb(22,11,48)" stroke="rgb(22,11,48)" stroke-width="1.51"/><path d="M1155,2393L1501,2288L1512,2022Z" fill="rgb(23,12,52)" stroke="rgb(23,12,52)" stroke-width="1.51"/><path d="M1155,2393L1512,2022L1056,1768Z" fill="rgb(24,13,58)" stroke="rgb(24,13,58)" stroke-width="1.51"/><path d="M866,1562L707,1911L1056,1768Z" fill="rgb(26,14,77)" stroke="rgb(26,14,77)" stroke-width="1.51"/><path d="M220,1601L707,1911L866,1562Z" fill="rgb(26,14,84)" stroke="rgb(26,14,84)" stroke-width="1.51"/><path d="M220,1601L866,1562L579,1066Z" fill="rgb(26,14,95)" stroke="rgb(26,14,95)" stroke-width="1.51"/><path d="M3247,1436L3148,1073L2594,1399Z" fill="rgb(23,11,50)" stroke="rgb(23,11,50)" stroke-width="1.51"/><path d="M2822,-217L2459,-392L2333,-86Z" fill="rgb(25,14,107)" stroke="rgb(25,14,107)" stroke-width="1.51"/><path d="M3049,797L3053,304L2801,801Z" fill="rgb(25,14,74)" stroke="rgb(25,14,74)" stroke-width="1.51"/><path d="M3474,800L3053,304L3049,797Z" fill="rgb(24,14,70)" stroke="rgb(24,14,70)" stroke-width="1.51"/><path d="M2378,1764L2707,2000L2594,1399Z" fill="rgb(22,10,45)" stroke="rgb(22,10,45)" stroke-width="1.51"/><path d="M2245,2362L2707,2000L2378,1764Z" fill="rgb(20,8,36)" stroke="rgb(20,8,36)" stroke-width="1.51"/><path d="M1151,-99L727,-230L813,329Z" fill="rgb(16,13,143)" stroke="rgb(16,13,143)" stroke-width="1.51"/><path d="M1942,-621L1417,-29L2044,22Z" fill="rgb(23,14,122)" stroke="rgb(23,14,122)" stroke-width="1.51"/><path d="M2333,-86L1942,-621L2044,22Z" fill="rgb(24,14,116)" stroke="rgb(24,14,116)" stroke-width="1.51"/><path d="M2822,-217L2333,-86L2808,208Z" fill="rgb(25,14,104)" stroke="rgb(25,14,104)" stroke-width="1.51"/><path d="M416,743L235,1133L579,1066Z" fill="rgb(24,14,115)" stroke="rgb(24,14,115)" stroke-width="1.51"/><path d="M1501,2288L1887,2412L1512,2022Z" fill="rgb(22,11,47)" stroke="rgb(22,11,47)" stroke-width="1.51"/><path d="M1146,-467L727,-230L1151,-99Z" fill="rgb(17,13,140)" stroke="rgb(17,13,140)" stroke-width="1.51"/><path d="M416,743L-220,715L235,1133Z" fill="rgb(22,14,125)" stroke="rgb(22,14,125)" stroke-width="1.51"/><path d="M1887,2412L2245,2362L1892,1788Z" fill="rgb(21,9,41)" stroke="rgb(21,9,41)" stroke-width="1.51"/><path d="M2459,-392L1942,-621L2333,-86Z" fill="rgb(24,14,113)" stroke="rgb(24,14,113)" stroke-width="1.51"/><path d="M1942,-621L1537,-652L1417,-29Z" fill="rgb(22,14,126)" stroke="rgb(22,14,126)" stroke-width="1.51"/><path d="M3198,-181L2822,-217L2808,208Z" fill="rgb(26,14,98)" stroke="rgb(26,14,98)" stroke-width="1.51"/><path d="M727,-230L326,173L813,329Z" fill="rgb(14,13,145)" stroke="rgb(14,13,145)" stroke-width="1.51"/><path d="M707,1911L1155,2393L1056,1768Z" fill="rgb(24,13,64)" stroke="rgb(24,13,64)" stroke-width="1.51"/><path d="M1501,2288L1902,2550L1887,2412Z" fill="rgb(22,10,45)" stroke="rgb(22,10,45)" stroke-width="1.51"/><path d="M2707,2000L3247,1436L2594,1399Z" fill="rgb(22,10,43)" stroke="rgb(22,10,43)" stroke-width="1.51"/><path d="M3148,1073L3474,800L3049,797Z" fill="rgb(24,13,60)" stroke="rgb(24,13,60)" stroke-width="1.51"/><path d="M1887,2412L1902,2550L2245,2362Z" fill="rgb(21,9,41)" stroke="rgb(21,9,41)" stroke-width="1.51"/><path d="M1489,2731L1902,2550L1501,2288Z" fill="rgb(22,11,47)" stroke="rgb(22,11,47)" stroke-width="1.51"/><path d="M235,1133L220,1601L579,1066Z" fill="rgb(25,14,105)" stroke="rgb(25,14,105)" stroke-width="1.51"/><path d="M707,1911L582,2159L1155,2393Z" fill="rgb(24,14,63)" stroke="rgb(24,14,63)" stroke-width="1.51"/><path d="M727,-230L309,2L326,173Z" fill="rgb(9,12,152)" stroke="rgb(9,12,152)" stroke-width="1.51"/><path d="M326,173L-13,388L416,743Z" fill="rgb(17,13,140)" stroke="rgb(17,13,140)" stroke-width="1.51"/><path d="M376,-475L309,2L727,-230Z" fill="rgb(9,12,152)" stroke="rgb(9,12,152)" stroke-width="1.51"/><path d="M326,2001L582,2159L707,1911Z" fill="rgb(25,14,73)" stroke="rgb(25,14,73)" stroke-width="1.51"/><path d="M3005,2364L2753,2263L2639,2694Z" fill="rgb(16,5,26)" stroke="rgb(16,5,26)" stroke-width="1.51"/><path d="M2245,2362L2753,2263L2707,2000Z" fill="rgb(18,6,31)" stroke="rgb(18,6,31)" stroke-width="1.51"/><path d="M2707,2000L3183,1970L3247,1436Z" fill="rgb(19,7,33)" stroke="rgb(19,7,33)" stroke-width="1.51"/><path d="M3507,1087L3474,800L3148,1073Z" fill="rgb(23,12,54)" stroke="rgb(23,12,54)" stroke-width="1.51"/><path d="M3053,304L3198,-181L2808,208Z" fill="rgb(25,14,92)" stroke="rgb(25,14,92)" stroke-width="1.51"/><path d="M3265,-495L2714,-545L2822,-217Z" fill="rgb(26,14,98)" stroke="rgb(26,14,98)" stroke-width="1.51"/><path d="M2822,-217L2714,-545L2459,-392Z" fill="rgb(25,14,104)" stroke="rgb(25,14,104)" stroke-width="1.51"/><path d="M2459,-392L2714,-545L1942,-621Z" fill="rgb(25,14,110)" stroke="rgb(25,14,110)" stroke-width="1.51"/><path d="M679,2611L1211,2604L1155,2393Z" fill="rgb(24,13,59)" stroke="rgb(24,13,59)" stroke-width="1.51"/><path d="M1155,2393L1211,2604L1501,2288Z" fill="rgb(23,12,54)" stroke="rgb(23,12,54)" stroke-width="1.51"/><path d="M582,2159L679,2611L1155,2393Z" fill="rgb(24,14,63)" stroke="rgb(24,14,63)" stroke-width="1.51"/><path d="M220,1601L326,2001L707,1911Z" fill="rgb(26,14,82)" stroke="rgb(26,14,82)" stroke-width="1.51"/><path d="M3630,1601L3507,1087L3247,1436Z" fill="rgb(21,9,39)" stroke="rgb(21,9,39)" stroke-width="1.51"/><path d="M3247,1436L3507,1087L3148,1073Z" fill="rgb(22,11,48)" stroke="rgb(22,11,48)" stroke-width="1.51"/><path d="M2753,2263L3183,1970L2707,2000Z" fill="rgb(16,5,28)" stroke="rgb(16,5,28)" stroke-width="1.51"/><path d="M1146,-467L790,-631L727,-230Z" fill="rgb(16,13,143)" stroke="rgb(16,13,143)" stroke-width="1.51"/><path d="M1537,-652L790,-631L1146,-467Z" fill="rgb(19,13,137)" stroke="rgb(19,13,137)" stroke-width="1.51"/><path d="M-24,-111L326,173L309,2Z" fill="rgb(6,12,157)" stroke="rgb(6,12,157)" stroke-width="1.51"/><path d="M-24,-111L-13,388L326,173Z" fill="rgb(8,12,155)" stroke="rgb(8,12,155)" stroke-width="1.51"/><path d="M235,1133L-213,1208L220,1601Z" fill="rgb(25,14,109)" stroke="rgb(25,14,109)" stroke-width="1.51"/><path d="M326,2001L412,2174L582,2159Z" fill="rgb(25,14,72)" stroke="rgb(25,14,72)" stroke-width="1.51"/><path d="M1211,2604L1489,2731L1501,2288Z" fill="rgb(23,12,52)" stroke="rgb(23,12,52)" stroke-width="1.51"/><path d="M2639,2694L2753,2263L2245,2362Z" fill="rgb(18,7,31)" stroke="rgb(18,7,31)" stroke-width="1.51"/><path d="M3503,215L3198,-181L3053,304Z" fill="rgb(26,14,87)" stroke="rgb(26,14,87)" stroke-width="1.51"/><path d="M4059,674L3503,215L3474,800Z" fill="rgb(24,14,63)" stroke="rgb(24,14,63)" stroke-width="1.51"/><path d="M3474,800L3503,215L3053,304Z" fill="rgb(25,14,74)" stroke="rgb(25,14,74)" stroke-width="1.51"/><path d="M790,-631L376,-475L727,-230Z" fill="rgb(12,12,148)" stroke="rgb(12,12,148)" stroke-width="1.51"/><path d="M2454,2757L2245,2362L1902,2550Z" fill="rgb(21,8,37)" stroke="rgb(21,8,37)" stroke-width="1.51"/><path d="M2753,2263L3005,2364L3183,1970Z" fill="rgb(14,4,23)" stroke="rgb(14,4,23)" stroke-width="1.51"/><path d="M-13,388L-220,715L416,743Z" fill="rgb(18,13,137)" stroke="rgb(18,13,137)" stroke-width="1.51"/><path d="M220,1601L-100,1846L326,2001Z" fill="rgb(26,14,89)" stroke="rgb(26,14,89)" stroke-width="1.51"/><path d="M-539,371L-220,715L-13,388Z" fill="rgb(15,13,143)" stroke="rgb(15,13,143)" stroke-width="1.51"/><path d="M-220,715L-213,1208L235,1133Z" fill="rgb(23,14,122)" stroke="rgb(23,14,122)" stroke-width="1.51"/><path d="M326,2001L33,2329L412,2174Z" fill="rgb(25,14,74)" stroke="rgb(25,14,74)" stroke-width="1.51"/><path d="M1489,2731L2454,2757L1902,2550Z" fill="rgb(21,9,41)" stroke="rgb(21,9,41)" stroke-width="1.51"/><path d="M176,2611L679,2611L412,2174Z" fill="rgb(25,14,71)" stroke="rgb(25,14,71)" stroke-width="1.51"/><path d="M412,2174L679,2611L582,2159Z" fill="rgb(25,14,68)" stroke="rgb(25,14,68)" stroke-width="1.51"/><path d="M1211,2604L679,2611L1489,2731Z" fill="rgb(23,13,57)" stroke="rgb(23,13,57)" stroke-width="1.51"/><path d="M2454,2757L2639,2694L2245,2362Z" fill="rgb(19,7,32)" stroke="rgb(19,7,32)" stroke-width="1.51"/><path d="M376,-475L-24,-111L309,2Z" fill="rgb(5,12,158)" stroke="rgb(5,12,158)" stroke-width="1.51"/><path d="M3641,1986L3630,1601L3183,1970Z" fill="rgb(14,4,24)" stroke="rgb(14,4,24)" stroke-width="1.51"/><path d="M3183,1970L3630,1601L3247,1436Z" fill="rgb(19,7,32)" stroke="rgb(19,7,32)" stroke-width="1.51"/><path d="M3507,1087L4022,1120L3474,800Z" fill="rgb(22,11,48)" stroke="rgb(22,11,48)" stroke-width="1.51"/><path d="M-213,1208L-213,1552L220,1601Z" fill="rgb(25,14,105)" stroke="rgb(25,14,105)" stroke-width="1.51"/><path d="M-449,1574L-213,1552L-213,1208Z" fill="rgb(25,14,106)" stroke="rgb(25,14,106)" stroke-width="1.51"/><path d="M-213,1552L-100,1846L220,1601Z" fill="rgb(26,14,97)" stroke="rgb(26,14,97)" stroke-width="1.51"/><path d="M3440,-417L3265,-495L3198,-181Z" fill="rgb(26,14,90)" stroke="rgb(26,14,90)" stroke-width="1.51"/><path d="M3198,-181L3265,-495L2822,-217Z" fill="rgb(26,14,95)" stroke="rgb(26,14,95)" stroke-width="1.51"/><path d="M2714,-545L4414,-480L1942,-621Z" fill="rgb(25,14,96)" stroke="rgb(25,14,96)" stroke-width="1.51"/><path d="M3503,215L3484,-219L3198,-181Z" fill="rgb(26,14,88)" stroke="rgb(26,14,88)" stroke-width="1.51"/><path d="M3986,-132L3484,-219L3503,215Z" fill="rgb(26,14,83)" stroke="rgb(26,14,83)" stroke-width="1.51"/><path d="M3484,-219L3440,-417L3198,-181Z" fill="rgb(25,14,89)" stroke="rgb(25,14,89)" stroke-width="1.51"/><path d="M3547,2159L3183,1970L3005,2364Z" fill="rgb(9,3,18)" stroke="rgb(9,3,18)" stroke-width="1.51"/><path d="M3547,2159L3641,1986L3183,1970Z" fill="rgb(10,3,18)" stroke="rgb(10,3,18)" stroke-width="1.51"/><path d="M-377,2355L33,2329L-100,1846Z" fill="rgb(26,14,79)" stroke="rgb(26,14,79)" stroke-width="1.51"/><path d="M-100,1846L33,2329L326,2001Z" fill="rgb(26,14,81)" stroke="rgb(26,14,81)" stroke-width="1.51"/><path d="M3533,2722L3547,2159L3005,2364Z" fill="rgb(8,3,15)" stroke="rgb(8,3,15)" stroke-width="1.51"/><path d="M3916,1933L3845,1531L3630,1601Z" fill="rgb(14,4,24)" stroke="rgb(14,4,24)" stroke-width="1.51"/><path d="M3630,1601L3845,1531L3507,1087Z" fill="rgb(20,8,35)" stroke="rgb(20,8,35)" stroke-width="1.51"/><path d="M-213,1552L-449,1574L-100,1846Z" fill="rgb(26,14,98)" stroke="rgb(26,14,98)" stroke-width="1.51"/><path d="M-595,1014L-449,1574L-213,1208Z" fill="rgb(24,14,113)" stroke="rgb(24,14,113)" stroke-width="1.51"/><path d="M-595,1014L-213,1208L-220,715Z" fill="rgb(22,14,124)" stroke="rgb(22,14,124)" stroke-width="1.51"/><path d="M33,2329L176,2611L412,2174Z" fill="rgb(25,14,75)" stroke="rgb(25,14,75)" stroke-width="1.51"/><path d="M679,2611L-543,2722L1489,2731Z" fill="rgb(25,14,68)" stroke="rgb(25,14,68)" stroke-width="1.51"/><path d="M-139,2635L176,2611L33,2329Z" fill="rgb(26,14,79)" stroke="rgb(26,14,79)" stroke-width="1.51"/><path d="M3845,1531L4022,1120L3507,1087Z" fill="rgb(21,8,37)" stroke="rgb(21,8,37)" stroke-width="1.51"/><path d="M3484,-219L4019,-465L3440,-417Z" fill="rgb(26,14,83)" stroke="rgb(26,14,83)" stroke-width="1.51"/><path d="M-24,-111L-367,-70L-13,388Z" fill="rgb(3,12,160)" stroke="rgb(3,12,160)" stroke-width="1.51"/><path d="M-185,-475L-367,-70L-24,-111Z" fill="rgb(0,11,163)" stroke="rgb(0,11,163)" stroke-width="1.51"/><path d="M-597,573L-595,1014L-220,715Z" fill="rgb(20,13,132)" stroke="rgb(20,13,132)" stroke-width="1.51"/><path d="M-367,-70L-539,371L-13,388Z" fill="rgb(9,12,153)" stroke="rgb(9,12,153)" stroke-width="1.51"/><path d="M-539,371L-597,573L-220,715Z" fill="rgb(17,13,141)" stroke="rgb(17,13,141)" stroke-width="1.51"/><path d="M4022,1120L4059,674L3474,800Z" fill="rgb(22,11,49)" stroke="rgb(22,11,49)" stroke-width="1.51"/><path d="M376,-475L-185,-475L-24,-111Z" fill="rgb(1,11,161)" stroke="rgb(1,11,161)" stroke-width="1.51"/><path d="M790,-631L-185,-475L376,-475Z" fill="rgb(7,12,155)" stroke="rgb(7,12,155)" stroke-width="1.51"/><path d="M2639,2694L3180,2777L3005,2364Z" fill="rgb(14,4,24)" stroke="rgb(14,4,24)" stroke-width="1.51"/><path d="M2454,2757L3180,2777L2639,2694Z" fill="rgb(16,5,27)" stroke="rgb(16,5,27)" stroke-width="1.51"/><path d="M-543,2722L3180,2777L2454,2757Z" fill="rgb(22,11,46)" stroke="rgb(22,11,46)" stroke-width="1.51"/><path d="M4059,674L3977,145L3503,215Z" fill="rgb(24,14,67)" stroke="rgb(24,14,67)" stroke-width="1.51"/><path d="M4257,1448L4224,1172L4022,1120Z" fill="rgb(20,8,36)" stroke="rgb(20,8,36)" stroke-width="1.51"/><path d="M3641,1986L3916,1933L3630,1601Z" fill="rgb(11,3,20)" stroke="rgb(11,3,20)" stroke-width="1.51"/><path d="M3803,2314L3916,1933L3641,1986Z" fill="rgb(3,1,7)" stroke="rgb(3,1,7)" stroke-width="1.51"/><path d="M3803,2314L3641,1986L3547,2159Z" fill="rgb(3,1,7)" stroke="rgb(3,1,7)" stroke-width="1.51"/><path d="M-595,1014L-573,1759L-449,1574Z" fill="rgb(25,14,105)" stroke="rgb(25,14,105)" stroke-width="1.51"/><path d="M-449,1574L-573,1759L-100,1846Z" fill="rgb(26,14,95)" stroke="rgb(26,14,95)" stroke-width="1.51"/><path d="M3977,145L3986,-132L3503,215Z" fill="rgb(26,14,77)" stroke="rgb(26,14,77)" stroke-width="1.51"/><path d="M4316,24L3986,-132L3977,145Z" fill="rgb(26,14,79)" stroke="rgb(26,14,79)" stroke-width="1.51"/><path d="M3533,2722L3803,2314L3547,2159Z" fill="rgb(3,1,7)" stroke="rgb(3,1,7)" stroke-width="1.51"/><path d="M4059,674L4384,192L3977,145Z" fill="rgb(25,14,67)" stroke="rgb(25,14,67)" stroke-width="1.51"/><path d="M4022,1120L4224,1172L4059,674Z" fill="rgb(22,10,45)" stroke="rgb(22,10,45)" stroke-width="1.51"/><path d="M4257,1448L4022,1120L3845,1531Z" fill="rgb(19,7,33)" stroke="rgb(19,7,33)" stroke-width="1.51"/><path d="M4257,1448L3845,1531L3916,1933Z" fill="rgb(14,4,25)" stroke="rgb(14,4,25)" stroke-width="1.51"/><path d="M176,2611L-543,2722L679,2611Z" fill="rgb(25,14,77)" stroke="rgb(25,14,77)" stroke-width="1.51"/><path d="M-377,2355L-139,2635L33,2329Z" fill="rgb(26,14,79)" stroke="rgb(26,14,79)" stroke-width="1.51"/><path d="M-573,1759L-377,2355L-100,1846Z" fill="rgb(26,14,85)" stroke="rgb(26,14,85)" stroke-width="1.51"/><path d="M3180,2777L3533,2722L3005,2364Z" fill="rgb(9,3,18)" stroke="rgb(9,3,18)" stroke-width="1.51"/><path d="M4399,1868L4257,1448L3916,1933Z" fill="rgb(11,3,21)" stroke="rgb(11,3,21)" stroke-width="1.51"/><path d="M4257,1448L4369,672L4224,1172Z" fill="rgb(21,9,41)" stroke="rgb(21,9,41)" stroke-width="1.51"/><path d="M4224,1172L4369,672L4059,674Z" fill="rgb(22,12,50)" stroke="rgb(22,12,50)" stroke-width="1.51"/><path d="M3986,-132L4019,-465L3484,-219Z" fill="rgb(25,14,80)" stroke="rgb(25,14,80)" stroke-width="1.51"/><path d="M3440,-417L4019,-465L3265,-495Z" fill="rgb(26,14,85)" stroke="rgb(26,14,85)" stroke-width="1.51"/><path d="M3265,-495L4414,-480L2714,-545Z" fill="rgb(26,14,87)" stroke="rgb(26,14,87)" stroke-width="1.51"/><path d="M1942,-621L4414,-480L1537,-652Z" fill="rgb(26,14,104)" stroke="rgb(26,14,104)" stroke-width="1.51"/><path d="M4414,-480L4019,-465L3986,-132Z" fill="rgb(26,14,79)" stroke="rgb(26,14,79)" stroke-width="1.51"/><path d="M4414,2268L4399,1868L3916,1933Z" fill="rgb(4,1,8)" stroke="rgb(4,1,8)" stroke-width="1.51"/><path d="M3533,2722L3853,2578L3803,2314Z" fill="rgb(2,1,4)" stroke="rgb(2,1,4)" stroke-width="1.51"/><path d="M790,-631L-612,-452L-185,-475Z" fill="rgb(0,11,163)" stroke="rgb(0,11,163)" stroke-width="1.51"/><path d="M-185,-475L-612,-452L-367,-70Z" fill="rgb(0,11,163)" stroke="rgb(0,11,163)" stroke-width="1.51"/><path d="M-367,-70L-612,-452L-539,371Z" fill="rgb(0,11,163)" stroke="rgb(0,11,163)" stroke-width="1.51"/><path d="M-539,371L-612,-452L-597,573Z" fill="rgb(6,12,156)" stroke="rgb(6,12,156)" stroke-width="1.51"/><path d="M-597,573L-612,-452L-595,1014Z" fill="rgb(13,12,148)" stroke="rgb(13,12,148)" stroke-width="1.51"/><path d="M4384,192L4316,24L3977,145Z" fill="rgb(25,14,75)" stroke="rgb(25,14,75)" stroke-width="1.51"/><path d="M4369,672L4384,192L4059,674Z" fill="rgb(24,13,61)" stroke="rgb(24,13,61)" stroke-width="1.51"/><path d="M4414,2268L3916,1933L3803,2314Z" fill="rgb(0,0,0)" stroke="rgb(0,0,0)" stroke-width="1.51"/><path d="M4257,1448L4399,1868L4369,672Z" fill="rgb(20,7,34)" stroke="rgb(20,7,34)" stroke-width="1.51"/><path d="M4369,672L4399,1868L4384,192Z" fill="rgb(22,11,48)" stroke="rgb(22,11,48)" stroke-width="1.51"/><path d="M-377,2355L-543,2722L-139,2635Z" fill="rgb(26,14,79)" stroke="rgb(26,14,79)" stroke-width="1.51"/><path d="M-139,2635L-543,2722L176,2611Z" fill="rgb(26,14,79)" stroke="rgb(26,14,79)" stroke-width="1.51"/><path d="M1489,2731L-543,2722L2454,2757Z" fill="rgb(23,13,57)" stroke="rgb(23,13,57)" stroke-width="1.51"/><path d="M-573,1759L-543,2722L-377,2355Z" fill="rgb(26,14,79)" stroke="rgb(26,14,79)" stroke-width="1.51"/><path d="M3853,2578L4414,2268L3803,2314Z" fill="rgb(0,0,0)" stroke="rgb(0,0,0)" stroke-width="1.51"/><path d="M4399,1868L4414,-480L4384,192Z" fill="rgb(24,13,61)" stroke="rgb(24,13,61)" stroke-width="1.51"/><path d="M4384,192L4414,-480L4316,24Z" fill="rgb(26,14,79)" stroke="rgb(26,14,79)" stroke-width="1.51"/><path d="M4316,24L4414,-480L3986,-132Z" fill="rgb(26,14,79)" stroke="rgb(26,14,79)" stroke-width="1.51"/><path d="M4019,-465L4414,-480L3265,-495Z" fill="rgb(26,14,79)" stroke="rgb(26,14,79)" stroke-width="1.51"/><path d="M4414,2268L4414,-480L4399,1868Z" fill="rgb(21,8,37)" stroke="rgb(21,8,37)" stroke-width="1.51"/><path d="M-543,2722L4371,2809L3180,2777Z" fill="rgb(20,7,35)" stroke="rgb(20,7,35)" stroke-width="1.51"/><path d="M3180,2777L4371,2809L3533,2722Z" fill="rgb(2,1,5)" stroke="rgb(2,1,5)" stroke-width="1.51"/><path d="M3533,2722L4371,2809L3853,2578Z" fill="rgb(0,0,0)" stroke="rgb(0,0,0)" stroke-width="1.51"/><path d="M3853,2578L4371,2809L4414,2268Z" fill="rgb(0,0,0)" stroke="rgb(0,0,0)" stroke-width="1.51"/></svg>